<?xml version="1.0" encoding="UTF-8"?><svg id="b" xmlns="http://www.w3.org/2000/svg" xmlns:xlink="http://www.w3.org/1999/xlink" width="210" height="49.09" viewBox="0 0 210 49.09"><defs><linearGradient id="d" x1="-2811.09" y1="-160.43" x2="-2811.09" y2="-131.47" gradientTransform="translate(-131.83 -2777.57) rotate(-90) scale(1 -1)" gradientUnits="userSpaceOnUse"><stop offset=".11" stop-color="#4114f6"/><stop offset=".26" stop-color="#4a17f7"/><stop offset=".27" stop-color="#4c18f7"/><stop offset=".67" stop-color="#e751ff"/><stop offset=".75" stop-color="#f084db"/><stop offset=".82" stop-color="#f8b1bc"/><stop offset=".88" stop-color="#fdcda9"/><stop offset=".91" stop-color="#ffd8a2"/></linearGradient><linearGradient id="e" x1="-2821.36" y1="-160.43" x2="-2821.36" y2="-131.47" xlink:href="#d"/><linearGradient id="f" x1="86.64" y1="1399.21" x2="86.64" y2="1431.94" gradientTransform="translate(-1374.76 -81.57) rotate(90) scale(1 -1)" gradientUnits="userSpaceOnUse"><stop offset=".11" stop-color="#4114f6"/><stop offset=".67" stop-color="#e751ff"/><stop offset=".75" stop-color="#f084db"/><stop offset=".82" stop-color="#f8b1bc"/><stop offset=".88" stop-color="#fdcda9"/><stop offset=".91" stop-color="#ffd8a2"/></linearGradient><linearGradient id="g" x1="96.74" x2="96.74" y2="1431.94" xlink:href="#f"/><linearGradient id="h" x1="25.35" y1="15.61" x2="11.53" y2="9.75" gradientTransform="translate(0 49.12) scale(1 -1)" gradientUnits="userSpaceOnUse"><stop offset="0" stop-color="#224ac7"/><stop offset=".49" stop-color="#3e97e7"/><stop offset="1" stop-color="#9c54d0"/></linearGradient><linearGradient id="i" x1="-1027.64" y1="-960.81" x2="-1027.64" y2="-937.16" gradientTransform="translate(71.52 -1381.78) rotate(-45) scale(1 -1)" xlink:href="#h"/><linearGradient id="j" x1="-1039.61" y1="-960.81" x2="-1039.61" y2="-937.16" gradientTransform="translate(71.52 -1381.78) rotate(-45) scale(1 -1)" xlink:href="#h"/><linearGradient id="k" x1="39.55" y1="47.96" x2="39.55" y2="5.38" xlink:href="#h"/><linearGradient id="l" x1="38.4" y1="-51.61" x2="38.4" y2="15.59" xlink:href="#h"/><linearGradient id="m" x1="19.24" y1="38.62" x2="37.91" y2="38.62" xlink:href="#h"/><linearGradient id="n" x1="-1547.79" y1="2248.72" x2="-1547.79" y2="2276.74" gradientTransform="translate(-2649.61 -488.2) rotate(135) scale(1 -1)" xlink:href="#h"/><linearGradient id="o" x1="195.03" y1="847.33" x2="195.03" y2="870.82" gradientTransform="translate(-708.38 489.69) rotate(45) scale(1 -1)" xlink:href="#h"/><linearGradient id="p" x1="-2898.31" y1="391.61" x2="-2898.31" y2="419.42" gradientTransform="translate(-1735.85 -2295.55) rotate(-135) scale(1 -1)" xlink:href="#h"/><linearGradient id="q" x1="197.65" y1="-40.15" x2="197.65" y2="-2.95" gradientTransform="translate(222.71 57.62) rotate(-180) scale(1 -1)" gradientUnits="userSpaceOnUse"><stop offset=".11" stop-color="#4114f6"/><stop offset=".26" stop-color="#4a17f7"/><stop offset=".27" stop-color="#4c18f7"/><stop offset=".67" stop-color="#e751ff"/><stop offset=".68" stop-color="#e053fd"/><stop offset=".74" stop-color="#916cea"/><stop offset=".8" stop-color="#5380db"/><stop offset=".84" stop-color="#268fd0"/><stop offset=".88" stop-color="#0a98c9"/><stop offset=".9" stop-color="#009cc7"/></linearGradient><linearGradient id="r" x1="-1534.51" y1="2248.72" x2="-1534.51" y2="2276.74" gradientTransform="translate(-2649.61 -488.2) rotate(135) scale(1 -1)" xlink:href="#h"/><linearGradient id="s" x1="-2904.19" y1="391.61" x2="-2904.19" y2="419.42" gradientTransform="translate(-1735.85 -2295.55) rotate(-135) scale(1 -1)" xlink:href="#h"/><linearGradient id="t" x1="-1522.04" y1="2248.72" x2="-1522.04" y2="2276.74" gradientTransform="translate(-2649.61 -488.2) rotate(135) scale(1 -1)" xlink:href="#h"/><linearGradient id="u" x1="189.31" y1="-156.22" x2="189.31" y2="-8.16" xlink:href="#q"/><linearGradient id="v" x1="-2903.39" y1="391.61" x2="-2903.39" y2="419.42" gradientTransform="translate(-1735.85 -2295.55) rotate(-135) scale(1 -1)" xlink:href="#h"/><linearGradient id="w" x1="-1527.81" y1="2248.72" x2="-1527.81" y2="2276.74" gradientTransform="translate(-2649.61 -488.2) rotate(135) scale(1 -1)" xlink:href="#h"/><linearGradient id="x" x1="-1529.68" y1="2248.72" x2="-1529.68" y2="2276.74" gradientTransform="translate(-2649.61 -488.2) rotate(135) scale(1 -1)" xlink:href="#h"/><linearGradient id="y" x1="33.26" y1="-234.26" x2="33.26" y2="33.53" gradientTransform="translate(0 49.12) scale(1 -1)" xlink:href="#q"/><linearGradient id="z" x1="15.29" y1="-787.78" x2="15.29" y2="87.68" gradientTransform="translate(0 49.12) scale(1 -1)" xlink:href="#q"/></defs><g id="c"><path d="m55.21,41.59h-1.73v4.54h-1.67v-11.36h4.19c2.18,0,3.74,1.48,3.74,3.41,0,1.64-1.09,2.92-2.74,3.3l2.86,4.65h-1.92l-2.74-4.54h0Zm2.85-3.39c0-1.09-.83-1.97-2.21-1.97h-2.36v3.95h2.36c1.38,0,2.21-.92,2.21-1.99h0Z" fill="#2d2a26"/><path d="m64.81,46.38c-2.42,0-4.16-1.77-4.16-4.15s1.74-4.15,4.14-4.15,3.85,1.76,3.85,4.15c0,.18-.01.44-.05.59h-6.22c.21,1.29,1.13,2.09,2.47,2.09.97,0,1.67-.35,2.23-1.06l.95.99c-.77,1.03-1.86,1.54-3.19,1.54h0Zm-2.45-4.74h4.65c-.12-1.24-1-2.12-2.26-2.12s-2.18.83-2.39,2.12Z" fill="#2d2a26"/><path d="m72.45,41.33l1,.48c.95.45,1.68,1.05,1.68,2.24,0,1.35-1.06,2.32-2.77,2.32s-2.54-.95-2.82-2.01l1.26-.7c.14.65.68,1.33,1.61,1.33.65,0,1.11-.33,1.11-.95,0-.44-.3-.73-1.03-1.06l-.89-.42c-.96-.44-1.7-.99-1.7-2.27,0-1.21,1.08-2.21,2.53-2.21s2.3.79,2.71,1.76l-1.17.67c-.26-.61-.77-1.08-1.51-1.08-.61,0-1.03.33-1.03.85,0,.47.3.73,1.03,1.06h0Z" fill="#2d2a26"/><path d="m80.46,46.38c-2.42,0-4.16-1.77-4.16-4.15s1.74-4.15,4.14-4.15,3.85,1.76,3.85,4.15c0,.18-.01.44-.05.59h-6.22c.21,1.29,1.13,2.09,2.47,2.09.97,0,1.67-.35,2.23-1.06l.95.99c-.77,1.03-1.86,1.54-3.19,1.54h0Zm-2.45-4.74h4.65c-.12-1.24-1-2.12-2.26-2.12s-2.18.83-2.39,2.12Z" fill="#2d2a26"/><path d="m89.35,38.08c1.39,0,2.41.67,2.79,1.45h.05c-.01-.17-.03-.36-.03-.77v-.44h1.5v7.82h-1.5v-.56c0-.35.02-.58.03-.79h-.05c-.41.92-1.48,1.59-2.85,1.59-2.36,0-3.94-1.74-3.94-4.15s1.67-4.15,4-4.15h0Zm2.74,4.14c0-1.58-1.06-2.7-2.54-2.7s-2.54,1.12-2.54,2.7,1.09,2.7,2.54,2.7,2.54-1.13,2.54-2.7Z" fill="#2d2a26"/><path d="m99.52,38.32v1.45h-1.99v6.36h-1.64v-7.82h3.62Z" fill="#2d2a26"/><path d="m106.53,40.65c-.45-.67-1.15-1.13-2.16-1.13-1.47,0-2.51,1.12-2.51,2.7s1.04,2.7,2.51,2.7c1.04,0,1.77-.51,2.21-1.2l.97.98c-.61.97-1.76,1.68-3.18,1.68-2.44,0-4.18-1.77-4.18-4.15s1.79-4.15,4.18-4.15c1.35,0,2.44.58,3.16,1.58l-1,1Z" fill="#2d2a26"/><path d="m109.02,46.14v-11.36h1.64v3.54h4.89v7.82h-1.64v-6.39h-3.26v6.39h-1.64Z" fill="#2d2a26"/><path d="m128.5,42.41c.01.14.03.29.03.42,0,1.97-1.26,3.54-3.74,3.54s-3.7-1.5-3.7-3.39c0-1.23.74-2.27,1.92-2.77-.99-.56-1.45-1.53-1.45-2.59,0-1.77,1.36-3.09,3.36-3.09,2.2,0,3.15,1.45,3.15,2.83,0,.21-.02.47-.05.64h-1.45c.02-.14.02-.32.02-.45,0-.8-.5-1.61-1.7-1.61-1.1,0-1.79.71-1.79,1.71s.62,1.92,2.03,1.92h3c1.06,0,1.38-.42,1.44-1.15l1.29.29c0,1.27-.88,2.24-2.41,2.24h-3.59c-1.38,0-2.12.92-2.12,1.94,0,1.15.85,2,2.15,2,1.42,0,2.08-.91,2.08-2.06,0-.15-.02-.29-.05-.42h1.58,0Z" fill="#2d2a26"/><path d="m135.89,34.78h1.67v11.36h-1.67v-11.36Z" fill="#2d2a26"/><path d="m146.39,38.32v7.82h-1.64v-6.39h-3.24v6.39h-1.64v-7.82h6.51Z" fill="#2d2a26"/><path d="m151.8,38.08c1.91,0,3.27,1.26,3.27,3.12v4.94h-1.64v-4.97c0-.97-.68-1.65-1.62-1.65s-1.64.68-1.64,1.65v4.97h-1.64v-5c0-1.82,1.35-3.06,3.26-3.06h0Z" fill="#2d2a26"/><path d="m156.66,42.23c0-2.39,1.76-4.15,4.15-4.15s4.16,1.76,4.16,4.15-1.77,4.15-4.16,4.15-4.15-1.77-4.15-4.15Zm6.65-.02c0-1.58-1.03-2.7-2.5-2.7s-2.5,1.12-2.5,2.7,1.04,2.7,2.5,2.7,2.5-1.13,2.5-2.7Z" fill="#2d2a26"/><path d="m168.33,46.14l-2.71-7.82h1.76l2.01,6.38h.06l2.02-6.38h1.74l-2.7,7.82h-2.18,0Z" fill="#2d2a26"/><path d="m177.87,38.08c1.39,0,2.41.67,2.79,1.45h.05c-.01-.17-.03-.36-.03-.77v-.44h1.5v7.82h-1.5v-.56c0-.35.02-.58.03-.79h-.05c-.41.92-1.48,1.59-2.85,1.59-2.36,0-3.94-1.74-3.94-4.15s1.67-4.15,4-4.15h0Zm2.74,4.14c0-1.58-1.06-2.7-2.54-2.7s-2.54,1.12-2.54,2.7,1.09,2.7,2.54,2.7,2.54-1.13,2.54-2.7Z" fill="#2d2a26"/><path d="m184.72,39.75h-.83v-1.42h.83v-2.03h1.64v2.03h2.12v1.42h-2.12v4.95h1.89v1.44h-3.53v-6.39Z" fill="#2d2a26"/><path d="m189.75,36.08c0-.56.44-.99,1-.99s1,.42,1,.99-.45.98-1,.98-1-.42-1-.98Zm.18,10.06v-7.82h1.64v7.82h-1.64Z" fill="#2d2a26"/><path d="m193.25,42.23c0-2.39,1.76-4.15,4.15-4.15s4.16,1.76,4.16,4.15-1.77,4.15-4.16,4.15-4.15-1.77-4.15-4.15Zm6.65-.02c0-1.58-1.03-2.7-2.5-2.7s-2.5,1.12-2.5,2.7,1.04,2.7,2.5,2.7,2.5-1.13,2.5-2.7Z" fill="#2d2a26"/><path d="m209.76,38.32v7.82h-1.64v-6.39h-3.24v6.39h-1.64v-7.82h6.51Z" fill="#2d2a26"/><path d="m93.74,19.2h11.76c.06.21.09.6.09,1.34-.03,6.38-4.18,10.83-10.86,10.83s-11.4-4.92-11.4-11.67,4.8-11.67,11.4-11.67c3.94,0,7.16,1.73,9.1,4.6l-2.24,1.85c-1.49-2.21-4-3.55-6.86-3.55-4.71,0-8.06,3.67-8.06,8.74s3.28,8.74,8.06,8.74c4.3,0,7.07-2.54,7.55-6.36h-8.53v-2.86h0Z" fill="#2d2a26"/><path d="m115.91,15.5v2.86h-3.91v12.53h-3.22v-15.4h7.13Z" fill="#2d2a26"/><path d="m125.16,15.02c2.74,0,4.74,1.31,5.49,2.86h.09c-.03-.33-.06-.72-.06-1.52v-.86h2.95v15.4h-2.95v-1.1c0-.69.03-1.13.06-1.55h-.09c-.81,1.82-2.92,3.13-5.61,3.13-4.66,0-7.76-3.43-7.76-8.18s3.28-8.18,7.88-8.18h0Zm5.4,8.15c0-3.1-2.09-5.31-5.01-5.31s-5.01,2.21-5.01,5.31,2.15,5.31,5.01,5.31,5.01-2.24,5.01-5.31Z" fill="#2d2a26"/><path d="m150.89,15.5v15.4h-3.22v-12.59h-6.38v12.59h-3.22v-15.4h12.83Z" fill="#2d2a26"/><path d="m162.11,15.02c2.74,0,4.74,1.31,5.49,2.86h.09c-.03-.33-.06-.72-.06-1.52v-.86h2.95v15.4h-2.95v-1.1c0-.69.03-1.13.06-1.55h-.09c-.81,1.82-2.92,3.13-5.61,3.13-4.66,0-7.76-3.43-7.76-8.18s3.28-8.18,7.88-8.18h0Zm5.4,8.15c0-3.1-2.09-5.31-5.01-5.31s-5.01,2.21-5.01,5.31,2.15,5.31,5.01,5.31,5.01-2.24,5.01-5.31Z" fill="#2d2a26"/><path d="m181.77,15.02c2.27,0,4.45.96,5.31,2.54h.12c-.06-.33-.09-.69-.09-1.52v-7.52h3.19v22.38h-2.95v-.99c0-.69.03-1.16.06-1.55h-.09c-1.02,1.94-3.16,3.01-5.67,3.01-4.6,0-7.7-3.4-7.7-8.18s3.19-8.18,7.82-8.18h0Zm5.46,8.15c0-3.1-2.09-5.31-5.01-5.31s-5.01,2.21-5.01,5.31,2.15,5.31,5.01,5.31,5.01-2.24,5.01-5.31Z" fill="#2d2a26"/><path d="m201.53,15.02c2.74,0,4.74,1.31,5.49,2.86h.09c-.03-.33-.06-.72-.06-1.52v-.86h2.95v15.4h-2.95v-1.1c0-.69.03-1.13.06-1.55h-.09c-.81,1.82-2.92,3.13-5.61,3.13-4.66,0-7.76-3.43-7.76-8.18s3.28-8.18,7.88-8.18h0Zm5.4,8.15c0-3.1-2.09-5.31-5.01-5.31s-5.01,2.21-5.01,5.31,2.15,5.31,5.01,5.31,5.01-2.24,5.01-5.31Z" fill="#2d2a26"/><path d="m69.14,8.87v22.17h-5.97v-6.21h-4.55v6.21h-5.97V8.87h16.49,0Zm-10.52,10.79h4.55v-5.62h-4.55v5.62Z" fill="#2d2a26"/><path d="m72.93,8.87h5.97v22.17h-5.97V8.87h0Z" fill="#2d2a26"/><polygon points="12.74 31.05 12.74 36 17.68 36 12.74 31.05" fill="url(#d)"/><path d="m19.99,44.5c1.15-.03,2.28-.52,3.31-1.41h-6.79c1.05.96,2.25,1.45,3.48,1.41Z" fill="url(#e)"/><path d="m26.09,5.44h5.73c-1.77-1-3.96-1-5.73,0Z" fill="url(#f)"/><polygon points="36.01 18.05 36.01 12.29 30.59 12.29 36.01 18.05" fill="url(#g)"/><path d="m19.42,36.72h-7.68c-.14,0-.27,0-.4-.01-.04,0-.07,0-.11,0-.1,0-.21-.02-.31-.03-.03,0-.06,0-.09-.01-.13-.02-.26-.04-.38-.07-.03,0-.06-.01-.08-.02-.1-.02-.2-.05-.3-.08-.03,0-.07-.02-.11-.03-.11-.03-.23-.07-.34-.11,0,0-.02,0-.03,0-.12-.04-.24-.09-.35-.14-.03-.01-.07-.03-.1-.04-.09-.04-.18-.08-.27-.13-.03-.01-.06-.03-.09-.04-.11-.06-.22-.12-.32-.19-.02-.01-.04-.03-.07-.04-.09-.05-.17-.11-.25-.17-.03-.02-.06-.04-.09-.06-.09-.07-.18-.13-.26-.2-.01,0-.03-.02-.04-.03-.1-.08-.19-.16-.28-.25-.03-.02-.05-.05-.07-.07-.07-.07-.14-.14-.21-.21-.02-.02-.05-.05-.07-.07-.08-.09-.17-.18-.24-.28-.01-.02-.03-.03-.04-.05-.07-.08-.13-.17-.19-.25-.02-.03-.04-.06-.06-.09-.06-.09-.12-.18-.18-.27,0-.02-.02-.03-.03-.05-.07-.11-.13-.22-.19-.33,0,0-.01-.02-.02-.03v3.45c0,3.07,2.5,5.58,5.58,5.58h12.31s.51-.51.51-.51l5.12-5.14h-10.26Z" fill="url(#h)"/><path d="m6.16,14.68l4.24-4.23,4.27-4.28h-2.93c-3.07,0-5.58,2.5-5.58,5.58v2.94h0Z" fill="url(#i)"/><path d="m11.81,36v-16.88c-2.53,2.33-4.93,4.56-5.65,5.25v6.05c0,3.07,2.5,5.58,5.58,5.58h.07Z" fill="url(#j)"/><path d="m42.17,16.39c-.07-.24-.14-.47-.24-.69-.08-.19-.17-.38-.27-.56-.48-.85-1.17-1.56-2.01-2.06s-1.82-.79-2.86-.79h-.07v17.67c2.54-2.35,4.96-4.58,5.65-5.25v-6.84c0-.51-.07-1-.2-1.47h0Z" fill="url(#k)"/><path d="m40.77,36l-.72.72-1.94,1.94-3.7,3.71h2.38c.28,0,.55-.02.82-.06,2.69-.4,4.76-2.72,4.76-5.52v-2.39l-1.6,1.6h0Z" fill="url(#l)"/><path d="m42.31,10.86c-.42-2.66-2.73-4.7-5.51-4.7h-11.75c-.08.07-.16.15-.24.23l-.39.39-4.78,4.79h17.15c.55,0,1.08.07,1.58.21.62.16,1.2.41,1.74.74.87.54,1.59,1.29,2.11,2.17.05.05.1.1.14.15v-3.11c0-.3-.02-.59-.07-.87h0Z" fill="url(#m)"/><path d="m42.38,14.95v-.1s-.09-.1-.14-.15c.05.08.1.17.14.25Z" fill="#fff"/><path d="m42.38,14.95v-.1s-.09-.1-.14-.15c.05.08.1.17.14.25Z" fill="url(#n)"/><path d="m42.38,14.95v-.1s-.09-.1-.14-.15c.05.08.1.17.14.25Z" fill="url(#o)"/><polygon points="25.06 42.36 25.06 42.37 25.07 42.37 25.06 42.36" fill="#fff"/><polygon points="25.06 42.36 25.06 42.37 25.07 42.37 25.06 42.36" fill="url(#p)"/><polygon points="25.06 42.36 25.06 42.37 25.07 42.37 25.06 42.36" fill="url(#q)"/><path d="m41.59,26.43c-.91.85-2.12,1.97-3.33,3.09-.52.48-1.04.96-1.54,1.42v5.07h3.03l2.62-2.62v-7.69c-.21.2-.47.44-.79.73h0Z" fill="url(#r)"/><path d="m33.4,42.37l.07-.07s-.08.05-.12.07h.05Z" fill="url(#s)"/><path d="m33.4,42.37l.07-.07s-.08.05-.12.07h.05Z" fill="url(#t)"/><path d="m33.4,42.37l.07-.07s-.08.05-.12.07h.05Z" fill="url(#u)"/><path d="m36.73,36.79c0,1.09-.28,2.12-.78,3.02l1.66-1.66,1.43-1.43h-2.31v.07h0Z" fill="url(#v)"/><path d="m36.73,36.79c0,1.09-.28,2.12-.78,3.02l1.66-1.66,1.43-1.43h-2.31v.07h0Z" fill="url(#w)"/><polygon points="36.73 36.72 39.04 36.72 39.76 36 36.73 36 36.73 36.72" fill="#fff"/><polygon points="36.73 36.72 39.04 36.72 39.76 36 36.73 36 36.73 36.72" fill="url(#x)"/><path d="m43.09,24.97c-.12.14-.34.36-.72.72v7.69l.72-.72v-7.69Z" fill="#fff"/><path d="m46.81,20.72l-3.61-3.61v7.56c.02.08.01.15-.11.3-.12.14-.34.36-.72.72-.21.2-.47.44-.79.73-.91.85-2.12,1.97-3.33,3.09-.52.48-1.04.96-1.54,1.42-.25.23-.49.45-.72.66-1.48,1.36-2.6,2.39-2.6,2.39l-2.01,2.02-.72.72-5.63,5.64h0s-.01,0-.01,0l-.72.72-.13.13c-1.26,1.26-2.71,1.96-4.2,2-.59.02-1.16-.07-1.72-.25-.1-.03-.2-.06-.3-.1l2.18,2.54c.45.45.96.81,1.51,1.08.8.4,1.68.61,2.59.61h0c1.55,0,3.02-.61,4.11-1.71l4.29-4.3.72-.72h-.05s.08-.05.12-.07l2.48-2.49,1.66-1.66,1.43-1.43.72-.72,2.62-2.62.72-.72,3.72-3.72c2.27-2.27,2.27-5.96,0-8.23h0Z" fill="url(#y)"/><path d="m28.35,1.69c-1.13-1.13-2.62-1.69-4.11-1.69s-2.99.57-4.12,1.71l-3.72,3.73-4.25,4.26-1.24,1.25-4.74,4.74-.72.72-3.74,3.74c-2.27,2.27-2.27,5.96,0,8.23l3.61,3.61v-7.56c-.03-.09-.01-.16.14-.33.12-.14.34-.36.72-.71.21-.19.45-.43.76-.71.91-.85,2.12-1.97,3.33-3.09.53-.49,1.06-.97,1.56-1.44.25-.23.49-.45.72-.66,1.47-1.35,2.57-2.37,2.57-2.37l2.81-2.82.72-.72,5.39-5.41.28-.28c.16-.16.32-.3.48-.44,1.78-1.54,3.89-2.04,5.79-1.48l-2.23-2.27h0Zm-15.81,9.88s0-.04,0-.06v.06h0Z" fill="url(#z)"/></g></svg>