<svg xmlns="http://www.w3.org/2000/svg" xmlns:xlink="http://www.w3.org/1999/xlink" viewBox="0 0 1000 132" role="img">
<title>Session 2 · Multi-Agent Systems - Montevive AI for Fundacion AI Granada</title>
<defs><linearGradient id="bnRule" x1="0" y1="0" x2="1" y2="0"><stop offset="0" stop-color="#0056A7"/><stop offset="1" stop-color="#45D0BD"/></linearGradient></defs>
<rect width="1000" height="132" fill="#ffffff"/>
<rect width="1000" height="5" fill="url(#bnRule)"/>
<rect y="131" width="1000" height="1" fill="#E2E6EA"/>
<g transform="translate(40.00,47.00) scale(0.34900)"><defs
     id="mv-defs2"><linearGradient
      
       id="mv-linearGradient1213"><stop
         style="stop-color:#392a51;stop-opacity:1;"
         offset="0"
         id="mv-stop1209" /><stop
         style="stop-color:#2b3a8f;stop-opacity:1;"
         offset="1"
         id="mv-stop1211" /></linearGradient><linearGradient
      
       xlink:href="#mv-linearGradient1213"
       id="mv-linearGradient1215"
       x1="-196.59688"
       y1="7.7294006"
       x2="-196.59688"
       y2="116.96729"
       gradientUnits="userSpaceOnUse" /></defs><g
    
    
     id="mv-layer1"
     transform="translate(240.77387,-7.5908171)"><g
       id="mv-g6415"><path
         style="fill:url(#mv-linearGradient1215);fill-opacity:1;stroke-width:0.0846667"
         d="m -217.74437,106.07174 -22.987,-10.392323 -0.0213,-44.0443 -0.0212,-44.0442999 h 47.07475 47.07476 v 43.8416499 43.84166 l -0.3175,0.15223 c -0.17463,0.0837 -10.59519,4.853283 -23.1568,10.599013 l -22.83931,10.44678 -0.9097,-0.004 -0.9097,-0.004 z m 26.73581,1.96932 c 1.51013,-0.7255 2.92272,-1.39461 3.1391,-1.48691 0.82471,-0.35179 0.97898,-0.59888 3.58734,-5.74533 0.86145,-1.699684 2.08024,-4.061884 2.70843,-5.249333 0.6282,-1.18745 2.06744,-3.96875 3.19831,-6.18067 2.7546,-5.38779 5.39347,-10.48634 8.12886,-15.70567 1.24465,-2.3749 2.92115,-5.5753 3.72556,-7.112 2.05843,-3.93231 3.59071,-6.81409 4.09668,-7.70467 l 0.43292,-0.762 0.0428,18.33034 c 0.0236,10.08168 0.0521,18.3443 0.0635,18.36137 0.0114,0.0171 0.0874,0.0132 0.16885,-0.009 0.34887,-0.0932 8.37507,-3.74607 8.51437,-3.87509 0.14774,-0.13684 0.15413,-1.45161 0.16933,-34.82665 0.009,-19.07645 0.005,-34.68445 -0.009,-34.68445 -0.0138,0 -0.18325,0.33338 -0.37657,0.74084 -0.19333,0.40746 -1.91982,3.80788 -3.83664,7.5565 -1.91682,3.74861 -4.96229,9.71126 -6.76771,13.25033 -3.34979,6.56638 -3.96368,7.75007 -6.52073,12.573 -2.62377,4.94878 -3.95414,7.49128 -7.11046,13.589 -3.4048,6.57776 -5.26483,10.14226 -7.62118,14.605 -1.78738,3.38515 -4.23618,8.1291 -6.62091,12.826399 -0.96051,1.89194 -1.73029,3.31124 -1.80307,3.32444 -0.0869,0.0157 -0.37163,-0.43867 -0.90153,-1.43874 -3.03667,-5.731059 -5.92077,-11.244199 -7.56726,-14.465339 -1.06126,-2.07619 -2.93756,-5.69569 -4.16955,-8.04333 -1.23199,-2.34764 -2.89758,-5.54478 -3.70132,-7.10476 -2.66901,-5.18034 -4.70345,-9.04533 -7.62085,-14.478 -3.37036,-6.27617 -5.65468,-10.65449 -12.14771,-23.28334 -2.45405,-4.77308 -4.48715,-8.70499 -4.51801,-8.73757 -0.0309,-0.0326 -0.0666,15.36069 -0.0795,34.20727 -0.0189,27.68726 -0.003,34.2941 0.0847,34.4102 0.088,0.11702 8.21458,3.92912 8.7242,4.09244 0.1426,0.0457 0.14844,-0.80166 0.127,-18.40103 l -0.0225,-18.44895 0.48295,0.87018 c 0.93626,1.68692 2.84614,5.25975 3.75106,7.01713 0.50355,0.9779 1.95962,3.77372 3.23571,6.21293 1.2761,2.43921 3.35137,6.43971 4.61171,8.89 4.09868,7.96843 6.81873,13.14837 10.25324,19.525743 2.49893,4.64014 2.91811,5.38816 3.16239,5.64321 0.11829,0.1235 0.96399,0.57747 1.87934,1.00882 0.91535,0.43135 2.23048,1.06374 2.92251,1.40529 0.69204,0.34155 1.29874,0.62101 1.34824,0.62101 0.0495,0 1.32554,-0.59359 2.83566,-1.31909 z m 6.28457,-34.071573 c 4.62232,-8.82439 8.6046,-16.42534 8.8495,-16.89101 5.9087,-11.23499 22.59585,-43.12389 22.62536,-43.23671 0.0389,-0.14886 -0.15438,-0.15495 -4.91199,-0.15495 -3.85926,0 -4.97168,0.0234 -5.03933,0.10583 -0.14391,0.17543 -2.3801,4.30048 -3.36202,6.20183 -0.50502,0.9779 -1.46901,2.82575 -2.14222,4.10634 -0.67321,1.28058 -2.11904,4.06188 -3.21296,6.18066 -1.09392,2.11879 -2.41065,4.63339 -2.92606,5.588 -0.51541,0.95462 -1.19764,2.28073 -1.51605,2.94691 -0.31842,0.66618 -0.83956,1.69488 -1.1581,2.286 -1.86522,3.4614 -7.95076,15.09412 -10.10728,19.32043 -0.32078,0.62865 -0.76621,1.46685 -0.98985,1.86267 -0.22364,0.39581 -1.44951,2.80552 -2.72416,5.3549 -1.27466,2.54937 -2.36508,4.63535 -2.42316,4.6355 -0.0581,1.6e-4 -0.80591,-1.39991 -1.66183,-3.11124 -3.28173,-6.56148 -11.0476,-21.54572 -15.63229,-30.1625 -1.15211,-2.16535 -2.9236,-5.5372 -3.93664,-7.493 -7.10699,-13.72086 -8.43152,-16.23475 -9.1561,-17.37783 l -0.28177,-0.4445 h -4.86938 c -3.12985,0 -4.86939,0.0297 -4.86939,0.0831 0,0.18956 0.78897,1.7496 3.31926,6.5632 3.91379,7.44559 6.82389,12.99705 10.60744,20.23533 4.34876,8.31958 7.86497,15.00994 12.6596,24.08767 6.28255,11.8948 11.08357,20.99886 12.09135,22.92854 0.51824,0.99231 1.15628,2.13255 1.41787,2.53386 l 0.47562,0.72967 0.23517,-0.4172 c 0.12935,-0.22946 4.01708,-7.63715 8.63941,-16.46153 z m -8.61754,-11.8745 c 0.14752,-0.11491 1.57389,-2.70475 2.90277,-5.27051 0.45824,-0.88476 1.53658,-2.92311 2.3963,-4.52966 2.09029,-3.90606 6.41156,-12.17901 11.18883,-21.42067 6.90557,-13.35885 6.94454,-13.4324 8.36117,-15.78205 0.39031,-0.64738 0.68995,-1.22841 0.66587,-1.29117 -0.0505,-0.13153 -2.97996,-0.15523 -7.18943,-0.0582 l -2.42655,0.056 -0.70916,1.36221 c -1.08885,2.09153 -5.20269,10.10585 -7.60944,14.82421 -1.18765,2.32833 -2.73009,5.31918 -3.42765,6.64633 -2.29173,4.36018 -3.58474,6.92323 -4.00224,7.93343 -0.22614,0.54717 -0.4449,1.0061 -0.48612,1.01984 -0.0412,0.0137 -0.32018,-0.51632 -0.6199,-1.17793 -0.29973,-0.6616 -1.14936,-2.34833 -1.88808,-3.74829 -0.73872,-1.39996 -2.36504,-4.60278 -3.61404,-7.11738 -2.71663,-5.46938 -8.6176,-17.09785 -9.43077,-18.58433 -0.31843,-0.58209 -0.63817,-1.10596 -0.71053,-1.16417 -0.10159,-0.0817 -1.16835,-0.10583 -4.68239,-0.10583 -2.50295,0 -4.5712,0.033 -4.59611,0.0733 -0.0538,0.087 3.87058,7.84852 5.97755,11.82238 0.81477,1.5367 1.93173,3.6703 2.48214,4.74134 2.36756,4.60696 7.51547,14.38349 10.94486,20.78566 0.86056,1.60655 2.13586,4.0259 2.83399,5.37634 1.6047,3.10407 2.64212,4.88214 3.22326,5.5245 0.19961,0.22064 0.2325,0.22734 0.41567,0.0847 z"
         id="mv-path294"
         /><path
         d="m -72.228928,78.952727 c -5.07376,-0.63987 -9.72911,-3.12936 -12.66288,-6.77159 -2.07867,-2.58065 -3.32288,-5.44689 -3.84067,-8.84767 -0.18281,-1.20061 -0.2059,-4.21864 -0.0415,-5.41867 0.55084,-4.02002 2.19961,-7.480051 4.87585,-10.232181 2.99966,-3.08472 6.72353,-4.94828 11.30868,-5.65927 1.39834,-0.21683 5.0458,-0.21388 6.477,0.005 4.34411,0.6651 8.08182,2.50813 11.01013,5.42901 2.02625,2.02112 3.4186,4.286021 4.31465,7.018551 0.65645,2.00188 0.907,3.65124 0.90818,5.97865 0.002,3.17268 -0.5746,5.76079 -1.87561,8.42434 -2.55423,5.22925 -7.57656,8.81846 -13.93402,9.95796 -1.32483,0.23746 -5.05132,0.30335 -6.53984,0.11563 z m 4.16918,-5.80167 c 3.08358,-0.29227 5.7669,-1.5038 7.74005,-3.49466 1.00128,-1.01028 1.62776,-1.89522 2.28846,-3.23259 0.6229,-1.26088 0.91733,-2.09914 1.16351,-3.31267 0.21944,-1.08168 0.21936,-4.25157 0,-5.281 -0.83861,-3.9331 -3.27346,-7.175061 -6.60419,-8.793391 -1.01675,-0.49401 -1.88064,-0.79045 -3.05488,-1.04827 -0.74695,-0.16401 -1.10788,-0.18806 -2.84514,-0.18959 -2.1332,-0.002 -2.61852,0.0589 -4.14825,0.51947 -2.82459,0.85042 -5.43781,2.9536 -6.94676,5.590901 -1.16923,2.04354 -1.63503,3.9083 -1.63503,6.54554 0,2.39955 0.32441,3.90155 1.25262,5.79967 0.6721,1.37437 1.394,2.40259 2.37691,3.38551 2.6272,2.62719 6.38168,3.89316 10.41284,3.51108 z m 258.205928,5.7594 c -0.96082,-0.20022 -1.81502,-0.84902 -2.1901,-1.66347 -0.60801,-1.32019 -0.382,-2.82488 0.56249,-3.74487 1.2331,-1.20111 3.29211,-1.19452 4.50105,0.0144 1.2375,1.23751 1.18952,3.38902 -0.10225,4.58497 -0.7478,0.69234 -1.82368,1.0064 -2.77119,0.80895 z M -135.83543,60.454797 V 42.336136 h 2.78223 2.78221 l 7.15942,11.959161 c 3.93769,6.57755 7.19102,11.95577 7.22962,11.95162 0.0386,-0.004 3.2334,-5.37625 7.09954,-11.938 l 7.02935,-11.930451 2.756932,-0.0223 2.75692,-0.0223 0.0562,5.14464 c 0.0309,2.82955 0.0562,10.983461 0.0562,18.119811 l 8e-5,12.97516 h -3.175 -3.175012 l -0.0122,-3.53483 c -0.007,-1.94416 -0.0353,-7.32289 -0.0635,-11.95273 l -0.0513,-8.41789 -5.92645,9.87839 -5.92646,9.8784 -1.52421,-0.001 -1.52421,-0.001 -5.92667,-9.73829 -5.92667,-9.73829 -0.0215,11.81372 -0.0215,11.81371 h -3.21702 -3.21704 z m 93.133342,0 V 42.336136 h 2.77719 2.77718 l 9.92956,12.191171 c 5.46125,6.70514 9.96462,12.21284 10.00748,12.23933 0.0473,0.0292 0.0779,-4.75898 0.0779,-12.19117 V 42.336136 h 3.34433 3.34434 v 18.119811 18.1198 l -2.81321,-0.0223 -2.8132,-0.0223 -9.9503,-12.21762 -9.95029,-12.21763 -0.0215,12.23879 -0.0214,12.23879 h -3.34406 -3.34404 z m 49.3606701,2.83634 V 48.008796 h -6.01133 -6.01134 v -2.83633 -2.83633 h 15.3670099 15.36699 v 2.83633 2.83633 h -6.01133 -6.01134 v 15.282341 15.28233 H 10.002922 6.6585821 Z M 30.449912,60.454797 V 42.336136 h 13.25033 13.25034 v 2.83633 2.83633 h -9.86367 -9.86367 v 4.699001 4.699 h 8.76416 8.76416 l -0.0223,2.77284 -0.0223,2.77283 -8.74183,0.0216 -8.74184,0.0216 v 4.99493 4.99494 h 10.24467 10.24467 v 2.794 2.794 h -13.63139 -13.63133 z m 44.733,17.63184 c -0.34659,-0.78231 -15.53713,-35.527991 -15.58396,-35.645581 -0.0339,-0.0851 0.69943,-0.10226 3.61503,-0.0847 l 3.65755,0.0221 6.00349,13.920251 c 3.30192,7.65613 6.01444,13.93118 6.02781,13.94456 0.0134,0.0134 2.76435,-6.26026 6.11328,-13.94141 l 6.08895,-13.965731 h 3.36567 3.36568 l -0.10175,0.23742 c -0.056,0.13058 -3.60695,8.28356 -7.89108,18.117741 l -7.78933,17.88031 -3.32783,9.4e-4 -3.32783,9.3e-4 -0.21568,-0.48684 z M 101.65458,60.454797 V 42.336136 h 3.38667 3.38666 v 18.118661 18.11867 h -3.38666 -3.38667 z m 26.84092,17.75884 c -0.39855,-0.90636 -15.60069,-35.678181 -15.63966,-35.772581 -0.0351,-0.0851 0.69778,-0.10226 3.61633,-0.0847 l 3.6604,0.0221 5.97984,13.864951 c 3.28891,7.62572 6.01587,13.86784 6.05992,13.87139 0.044,0.004 2.80574,-6.2452 6.1371,-13.88611 l 6.05703,-13.892561 h 3.36971 c 3.18087,0 3.36557,0.008 3.29602,0.14816 -0.0405,0.0815 -3.59469,8.23488 -7.89815,18.118631 l -7.82446,17.97045 -3.32792,5e-5 -3.32794,4e-5 z m 26.41442,-17.75884 V 42.336136 h 13.25033 13.25033 v 2.83633 2.83633 h -9.86366 -9.86367 v 4.699001 4.699 h 8.763 8.763 v 2.794 2.79401 h -8.763 -8.763 v 4.99533 4.99533 h 10.24467 10.24466 v 2.794 2.794 h -13.63133 -13.63133 z m 44.57121,17.97051 c 0.0264,-0.0815 3.68319,-8.22537 8.12627,-18.09751 l 8.07832,-17.949331 3.3306,-0.0211 3.33059,-0.0211 8.128,18.006461 c 4.4704,9.90355 8.14032,18.0569 8.15537,18.11856 0.0224,0.0917 -0.61061,0.11211 -3.47173,0.11211 h -3.4991 l -1.79429,-4.16983 -1.79429,-4.16983 h -9.08192 -9.08189 l -1.78107,4.16804 -1.78107,4.16804 -3.45588,0.002 c -3.25357,0.002 -3.45306,-0.007 -3.40791,-0.14638 z m 26.27153,-13.589 c -0.22914,-0.58632 -6.70047,-15.616341 -6.74464,-15.664821 -0.0497,-0.0545 -6.64142,15.181241 -6.75902,15.622481 -0.0374,0.14021 0.32534,0.14817 6.75276,0.14817 5.39942,0 6.78378,-0.0217 6.7509,-0.10583 z m 17.54925,-4.38151 V 42.336136 h 3.38667 3.38666 v 18.118661 18.11867 h -3.38666 -3.38667 z"
         style="fill:#392a51;fill-opacity:1;stroke-width:0.0846667"
         id="mv-path1166" /></g></g></g>
<g transform="translate(814.55,49.00) scale(0.69261)"><defs><linearGradient id="aig-d" x1="-2811.09" y1="-160.43" x2="-2811.09" y2="-131.47" gradientTransform="translate(-131.83 -2777.57) rotate(-90) scale(1 -1)" gradientUnits="userSpaceOnUse"><stop offset=".11" stop-color="#4114f6"/><stop offset=".26" stop-color="#4a17f7"/><stop offset=".27" stop-color="#4c18f7"/><stop offset=".67" stop-color="#e751ff"/><stop offset=".75" stop-color="#f084db"/><stop offset=".82" stop-color="#f8b1bc"/><stop offset=".88" stop-color="#fdcda9"/><stop offset=".91" stop-color="#ffd8a2"/></linearGradient><linearGradient id="aig-e" x1="-2821.36" y1="-160.43" x2="-2821.36" y2="-131.47" xlink:href="#aig-d"/><linearGradient id="aig-f" x1="86.64" y1="1399.21" x2="86.64" y2="1431.94" gradientTransform="translate(-1374.76 -81.57) rotate(90) scale(1 -1)" gradientUnits="userSpaceOnUse"><stop offset=".11" stop-color="#4114f6"/><stop offset=".67" stop-color="#e751ff"/><stop offset=".75" stop-color="#f084db"/><stop offset=".82" stop-color="#f8b1bc"/><stop offset=".88" stop-color="#fdcda9"/><stop offset=".91" stop-color="#ffd8a2"/></linearGradient><linearGradient id="aig-g" x1="96.74" x2="96.74" y2="1431.94" xlink:href="#aig-f"/><linearGradient id="aig-h" x1="25.35" y1="15.61" x2="11.53" y2="9.75" gradientTransform="translate(0 49.12) scale(1 -1)" gradientUnits="userSpaceOnUse"><stop offset="0" stop-color="#224ac7"/><stop offset=".49" stop-color="#3e97e7"/><stop offset="1" stop-color="#9c54d0"/></linearGradient><linearGradient id="aig-i" x1="-1027.64" y1="-960.81" x2="-1027.64" y2="-937.16" gradientTransform="translate(71.52 -1381.78) rotate(-45) scale(1 -1)" xlink:href="#aig-h"/><linearGradient id="aig-j" x1="-1039.61" y1="-960.81" x2="-1039.61" y2="-937.16" gradientTransform="translate(71.52 -1381.78) rotate(-45) scale(1 -1)" xlink:href="#aig-h"/><linearGradient id="aig-k" x1="39.55" y1="47.96" x2="39.55" y2="5.38" xlink:href="#aig-h"/><linearGradient id="aig-l" x1="38.4" y1="-51.61" x2="38.4" y2="15.59" xlink:href="#aig-h"/><linearGradient id="aig-m" x1="19.24" y1="38.62" x2="37.91" y2="38.62" xlink:href="#aig-h"/><linearGradient id="aig-n" x1="-1547.79" y1="2248.72" x2="-1547.79" y2="2276.74" gradientTransform="translate(-2649.61 -488.2) rotate(135) scale(1 -1)" xlink:href="#aig-h"/><linearGradient id="aig-o" x1="195.03" y1="847.33" x2="195.03" y2="870.82" gradientTransform="translate(-708.38 489.69) rotate(45) scale(1 -1)" xlink:href="#aig-h"/><linearGradient id="aig-p" x1="-2898.31" y1="391.61" x2="-2898.31" y2="419.42" gradientTransform="translate(-1735.85 -2295.55) rotate(-135) scale(1 -1)" xlink:href="#aig-h"/><linearGradient id="aig-q" x1="197.65" y1="-40.15" x2="197.65" y2="-2.95" gradientTransform="translate(222.71 57.62) rotate(-180) scale(1 -1)" gradientUnits="userSpaceOnUse"><stop offset=".11" stop-color="#4114f6"/><stop offset=".26" stop-color="#4a17f7"/><stop offset=".27" stop-color="#4c18f7"/><stop offset=".67" stop-color="#e751ff"/><stop offset=".68" stop-color="#e053fd"/><stop offset=".74" stop-color="#916cea"/><stop offset=".8" stop-color="#5380db"/><stop offset=".84" stop-color="#268fd0"/><stop offset=".88" stop-color="#0a98c9"/><stop offset=".9" stop-color="#009cc7"/></linearGradient><linearGradient id="aig-r" x1="-1534.51" y1="2248.72" x2="-1534.51" y2="2276.74" gradientTransform="translate(-2649.61 -488.2) rotate(135) scale(1 -1)" xlink:href="#aig-h"/><linearGradient id="aig-s" x1="-2904.19" y1="391.61" x2="-2904.19" y2="419.42" gradientTransform="translate(-1735.85 -2295.55) rotate(-135) scale(1 -1)" xlink:href="#aig-h"/><linearGradient id="aig-t" x1="-1522.04" y1="2248.72" x2="-1522.04" y2="2276.74" gradientTransform="translate(-2649.61 -488.2) rotate(135) scale(1 -1)" xlink:href="#aig-h"/><linearGradient id="aig-u" x1="189.31" y1="-156.22" x2="189.31" y2="-8.16" xlink:href="#aig-q"/><linearGradient id="aig-v" x1="-2903.39" y1="391.61" x2="-2903.39" y2="419.42" gradientTransform="translate(-1735.85 -2295.55) rotate(-135) scale(1 -1)" xlink:href="#aig-h"/><linearGradient id="aig-w" x1="-1527.81" y1="2248.72" x2="-1527.81" y2="2276.74" gradientTransform="translate(-2649.61 -488.2) rotate(135) scale(1 -1)" xlink:href="#aig-h"/><linearGradient id="aig-x" x1="-1529.68" y1="2248.72" x2="-1529.68" y2="2276.74" gradientTransform="translate(-2649.61 -488.2) rotate(135) scale(1 -1)" xlink:href="#aig-h"/><linearGradient id="aig-y" x1="33.26" y1="-234.26" x2="33.26" y2="33.53" gradientTransform="translate(0 49.12) scale(1 -1)" xlink:href="#aig-q"/><linearGradient id="aig-z" x1="15.29" y1="-787.78" x2="15.29" y2="87.68" gradientTransform="translate(0 49.12) scale(1 -1)" xlink:href="#aig-q"/></defs><g id="aig-c"><path d="m55.21,41.59h-1.73v4.54h-1.67v-11.36h4.19c2.18,0,3.74,1.48,3.74,3.41,0,1.64-1.09,2.92-2.74,3.3l2.86,4.65h-1.92l-2.74-4.54h0Zm2.85-3.39c0-1.09-.83-1.97-2.21-1.97h-2.36v3.95h2.36c1.38,0,2.21-.92,2.21-1.99h0Z" fill="#2d2a26"/><path d="m64.81,46.38c-2.42,0-4.16-1.77-4.16-4.15s1.74-4.15,4.14-4.15,3.85,1.76,3.85,4.15c0,.18-.01.44-.05.59h-6.22c.21,1.29,1.13,2.09,2.47,2.09.97,0,1.67-.35,2.23-1.06l.95.99c-.77,1.03-1.86,1.54-3.19,1.54h0Zm-2.45-4.74h4.65c-.12-1.24-1-2.12-2.26-2.12s-2.18.83-2.39,2.12Z" fill="#2d2a26"/><path d="m72.45,41.33l1,.48c.95.45,1.68,1.05,1.68,2.24,0,1.35-1.06,2.32-2.77,2.32s-2.54-.95-2.82-2.01l1.26-.7c.14.65.68,1.33,1.61,1.33.65,0,1.11-.33,1.11-.95,0-.44-.3-.73-1.03-1.06l-.89-.42c-.96-.44-1.7-.99-1.7-2.27,0-1.21,1.08-2.21,2.53-2.21s2.3.79,2.71,1.76l-1.17.67c-.26-.61-.77-1.08-1.51-1.08-.61,0-1.03.33-1.03.85,0,.47.3.73,1.03,1.06h0Z" fill="#2d2a26"/><path d="m80.46,46.38c-2.42,0-4.16-1.77-4.16-4.15s1.74-4.15,4.14-4.15,3.85,1.76,3.85,4.15c0,.18-.01.44-.05.59h-6.22c.21,1.29,1.13,2.09,2.47,2.09.97,0,1.67-.35,2.23-1.06l.95.99c-.77,1.03-1.86,1.54-3.19,1.54h0Zm-2.45-4.74h4.65c-.12-1.24-1-2.12-2.26-2.12s-2.18.83-2.39,2.12Z" fill="#2d2a26"/><path d="m89.35,38.08c1.39,0,2.41.67,2.79,1.45h.05c-.01-.17-.03-.36-.03-.77v-.44h1.5v7.82h-1.5v-.56c0-.35.02-.58.03-.79h-.05c-.41.92-1.48,1.59-2.85,1.59-2.36,0-3.94-1.74-3.94-4.15s1.67-4.15,4-4.15h0Zm2.74,4.14c0-1.58-1.06-2.7-2.54-2.7s-2.54,1.12-2.54,2.7,1.09,2.7,2.54,2.7,2.54-1.13,2.54-2.7Z" fill="#2d2a26"/><path d="m99.52,38.32v1.45h-1.99v6.36h-1.64v-7.82h3.62Z" fill="#2d2a26"/><path d="m106.53,40.65c-.45-.67-1.15-1.13-2.16-1.13-1.47,0-2.51,1.12-2.51,2.7s1.04,2.7,2.51,2.7c1.04,0,1.77-.51,2.21-1.2l.97.98c-.61.97-1.76,1.68-3.18,1.68-2.44,0-4.18-1.77-4.18-4.15s1.79-4.15,4.18-4.15c1.35,0,2.44.58,3.16,1.58l-1,1Z" fill="#2d2a26"/><path d="m109.02,46.14v-11.36h1.64v3.54h4.89v7.82h-1.64v-6.39h-3.26v6.39h-1.64Z" fill="#2d2a26"/><path d="m128.5,42.41c.01.14.03.29.03.42,0,1.97-1.26,3.54-3.74,3.54s-3.7-1.5-3.7-3.39c0-1.23.74-2.27,1.92-2.77-.99-.56-1.45-1.53-1.45-2.59,0-1.77,1.36-3.09,3.36-3.09,2.2,0,3.15,1.45,3.15,2.83,0,.21-.02.47-.05.64h-1.45c.02-.14.02-.32.02-.45,0-.8-.5-1.61-1.7-1.61-1.1,0-1.79.71-1.79,1.71s.62,1.92,2.03,1.92h3c1.06,0,1.38-.42,1.44-1.15l1.29.29c0,1.27-.88,2.24-2.41,2.24h-3.59c-1.38,0-2.12.92-2.12,1.94,0,1.15.85,2,2.15,2,1.42,0,2.08-.91,2.08-2.06,0-.15-.02-.29-.05-.42h1.58,0Z" fill="#2d2a26"/><path d="m135.89,34.78h1.67v11.36h-1.67v-11.36Z" fill="#2d2a26"/><path d="m146.39,38.32v7.82h-1.64v-6.39h-3.24v6.39h-1.64v-7.82h6.51Z" fill="#2d2a26"/><path d="m151.8,38.08c1.91,0,3.27,1.26,3.27,3.12v4.94h-1.64v-4.97c0-.97-.68-1.65-1.62-1.65s-1.64.68-1.64,1.65v4.97h-1.64v-5c0-1.82,1.35-3.06,3.26-3.06h0Z" fill="#2d2a26"/><path d="m156.66,42.23c0-2.39,1.76-4.15,4.15-4.15s4.16,1.76,4.16,4.15-1.77,4.15-4.16,4.15-4.15-1.77-4.15-4.15Zm6.65-.02c0-1.58-1.03-2.7-2.5-2.7s-2.5,1.12-2.5,2.7,1.04,2.7,2.5,2.7,2.5-1.13,2.5-2.7Z" fill="#2d2a26"/><path d="m168.33,46.14l-2.71-7.82h1.76l2.01,6.38h.06l2.02-6.38h1.74l-2.7,7.82h-2.18,0Z" fill="#2d2a26"/><path d="m177.87,38.08c1.39,0,2.41.67,2.79,1.45h.05c-.01-.17-.03-.36-.03-.77v-.44h1.5v7.82h-1.5v-.56c0-.35.02-.58.03-.79h-.05c-.41.92-1.48,1.59-2.85,1.59-2.36,0-3.94-1.74-3.94-4.15s1.67-4.15,4-4.15h0Zm2.74,4.14c0-1.58-1.06-2.7-2.54-2.7s-2.54,1.12-2.54,2.7,1.09,2.7,2.54,2.7,2.54-1.13,2.54-2.7Z" fill="#2d2a26"/><path d="m184.72,39.75h-.83v-1.42h.83v-2.03h1.64v2.03h2.12v1.42h-2.12v4.95h1.89v1.44h-3.53v-6.39Z" fill="#2d2a26"/><path d="m189.75,36.08c0-.56.44-.99,1-.99s1,.42,1,.99-.45.98-1,.98-1-.42-1-.98Zm.18,10.06v-7.82h1.64v7.82h-1.64Z" fill="#2d2a26"/><path d="m193.25,42.23c0-2.39,1.76-4.15,4.15-4.15s4.16,1.76,4.16,4.15-1.77,4.15-4.16,4.15-4.15-1.77-4.15-4.15Zm6.65-.02c0-1.58-1.03-2.7-2.5-2.7s-2.5,1.12-2.5,2.7,1.04,2.7,2.5,2.7,2.5-1.13,2.5-2.7Z" fill="#2d2a26"/><path d="m209.76,38.32v7.82h-1.64v-6.39h-3.24v6.39h-1.64v-7.82h6.51Z" fill="#2d2a26"/><path d="m93.74,19.2h11.76c.06.21.09.6.09,1.34-.03,6.38-4.18,10.83-10.86,10.83s-11.4-4.92-11.4-11.67,4.8-11.67,11.4-11.67c3.94,0,7.16,1.73,9.1,4.6l-2.24,1.85c-1.49-2.21-4-3.55-6.86-3.55-4.71,0-8.06,3.67-8.06,8.74s3.28,8.74,8.06,8.74c4.3,0,7.07-2.54,7.55-6.36h-8.53v-2.86h0Z" fill="#2d2a26"/><path d="m115.91,15.5v2.86h-3.91v12.53h-3.22v-15.4h7.13Z" fill="#2d2a26"/><path d="m125.16,15.02c2.74,0,4.74,1.31,5.49,2.86h.09c-.03-.33-.06-.72-.06-1.52v-.86h2.95v15.4h-2.95v-1.1c0-.69.03-1.13.06-1.55h-.09c-.81,1.82-2.92,3.13-5.61,3.13-4.66,0-7.76-3.43-7.76-8.18s3.28-8.18,7.88-8.18h0Zm5.4,8.15c0-3.1-2.09-5.31-5.01-5.31s-5.01,2.21-5.01,5.31,2.15,5.31,5.01,5.31,5.01-2.24,5.01-5.31Z" fill="#2d2a26"/><path d="m150.89,15.5v15.4h-3.22v-12.59h-6.38v12.59h-3.22v-15.4h12.83Z" fill="#2d2a26"/><path d="m162.11,15.02c2.74,0,4.74,1.31,5.49,2.86h.09c-.03-.33-.06-.72-.06-1.52v-.86h2.95v15.4h-2.95v-1.1c0-.69.03-1.13.06-1.55h-.09c-.81,1.82-2.92,3.13-5.61,3.13-4.66,0-7.76-3.43-7.76-8.18s3.28-8.18,7.88-8.18h0Zm5.4,8.15c0-3.1-2.09-5.31-5.01-5.31s-5.01,2.21-5.01,5.31,2.15,5.31,5.01,5.31,5.01-2.24,5.01-5.31Z" fill="#2d2a26"/><path d="m181.77,15.02c2.27,0,4.45.96,5.31,2.54h.12c-.06-.33-.09-.69-.09-1.52v-7.52h3.19v22.38h-2.95v-.99c0-.69.03-1.16.06-1.55h-.09c-1.02,1.94-3.16,3.01-5.67,3.01-4.6,0-7.7-3.4-7.7-8.18s3.19-8.18,7.82-8.18h0Zm5.46,8.15c0-3.1-2.09-5.31-5.01-5.31s-5.01,2.21-5.01,5.31,2.15,5.31,5.01,5.31,5.01-2.24,5.01-5.31Z" fill="#2d2a26"/><path d="m201.53,15.02c2.74,0,4.74,1.31,5.49,2.86h.09c-.03-.33-.06-.72-.06-1.52v-.86h2.95v15.4h-2.95v-1.1c0-.69.03-1.13.06-1.55h-.09c-.81,1.82-2.92,3.13-5.61,3.13-4.66,0-7.76-3.43-7.76-8.18s3.28-8.18,7.88-8.18h0Zm5.4,8.15c0-3.1-2.09-5.31-5.01-5.31s-5.01,2.21-5.01,5.31,2.15,5.31,5.01,5.31,5.01-2.24,5.01-5.31Z" fill="#2d2a26"/><path d="m69.14,8.87v22.17h-5.97v-6.21h-4.55v6.21h-5.97V8.87h16.49,0Zm-10.52,10.79h4.55v-5.62h-4.55v5.62Z" fill="#2d2a26"/><path d="m72.93,8.87h5.97v22.17h-5.97V8.87h0Z" fill="#2d2a26"/><polygon points="12.74 31.05 12.74 36 17.68 36 12.74 31.05" fill="url(#aig-d)"/><path d="m19.99,44.5c1.15-.03,2.28-.52,3.31-1.41h-6.79c1.05.96,2.25,1.45,3.48,1.41Z" fill="url(#aig-e)"/><path d="m26.09,5.44h5.73c-1.77-1-3.96-1-5.73,0Z" fill="url(#aig-f)"/><polygon points="36.01 18.05 36.01 12.29 30.59 12.29 36.01 18.05" fill="url(#aig-g)"/><path d="m19.42,36.72h-7.68c-.14,0-.27,0-.4-.01-.04,0-.07,0-.11,0-.1,0-.21-.02-.31-.03-.03,0-.06,0-.09-.01-.13-.02-.26-.04-.38-.07-.03,0-.06-.01-.08-.02-.1-.02-.2-.05-.3-.08-.03,0-.07-.02-.11-.03-.11-.03-.23-.07-.34-.11,0,0-.02,0-.03,0-.12-.04-.24-.09-.35-.14-.03-.01-.07-.03-.1-.04-.09-.04-.18-.08-.27-.13-.03-.01-.06-.03-.09-.04-.11-.06-.22-.12-.32-.19-.02-.01-.04-.03-.07-.04-.09-.05-.17-.11-.25-.17-.03-.02-.06-.04-.09-.06-.09-.07-.18-.13-.26-.2-.01,0-.03-.02-.04-.03-.1-.08-.19-.16-.28-.25-.03-.02-.05-.05-.07-.07-.07-.07-.14-.14-.21-.21-.02-.02-.05-.05-.07-.07-.08-.09-.17-.18-.24-.28-.01-.02-.03-.03-.04-.05-.07-.08-.13-.17-.19-.25-.02-.03-.04-.06-.06-.09-.06-.09-.12-.18-.18-.27,0-.02-.02-.03-.03-.05-.07-.11-.13-.22-.19-.33,0,0-.01-.02-.02-.03v3.45c0,3.07,2.5,5.58,5.58,5.58h12.31s.51-.51.51-.51l5.12-5.14h-10.26Z" fill="url(#aig-h)"/><path d="m6.16,14.68l4.24-4.23,4.27-4.28h-2.93c-3.07,0-5.58,2.5-5.58,5.58v2.94h0Z" fill="url(#aig-i)"/><path d="m11.81,36v-16.88c-2.53,2.33-4.93,4.56-5.65,5.25v6.05c0,3.07,2.5,5.58,5.58,5.58h.07Z" fill="url(#aig-j)"/><path d="m42.17,16.39c-.07-.24-.14-.47-.24-.69-.08-.19-.17-.38-.27-.56-.48-.85-1.17-1.56-2.01-2.06s-1.82-.79-2.86-.79h-.07v17.67c2.54-2.35,4.96-4.58,5.65-5.25v-6.84c0-.51-.07-1-.2-1.47h0Z" fill="url(#aig-k)"/><path d="m40.77,36l-.72.72-1.94,1.94-3.7,3.71h2.38c.28,0,.55-.02.82-.06,2.69-.4,4.76-2.72,4.76-5.52v-2.39l-1.6,1.6h0Z" fill="url(#aig-l)"/><path d="m42.31,10.86c-.42-2.66-2.73-4.7-5.51-4.7h-11.75c-.08.07-.16.15-.24.23l-.39.39-4.78,4.79h17.15c.55,0,1.08.07,1.58.21.62.16,1.2.41,1.74.74.87.54,1.59,1.29,2.11,2.17.05.05.1.1.14.15v-3.11c0-.3-.02-.59-.07-.87h0Z" fill="url(#aig-m)"/><path d="m42.38,14.95v-.1s-.09-.1-.14-.15c.05.08.1.17.14.25Z" fill="#fff"/><path d="m42.38,14.95v-.1s-.09-.1-.14-.15c.05.08.1.17.14.25Z" fill="url(#aig-n)"/><path d="m42.38,14.95v-.1s-.09-.1-.14-.15c.05.08.1.17.14.25Z" fill="url(#aig-o)"/><polygon points="25.06 42.36 25.06 42.37 25.07 42.37 25.06 42.36" fill="#fff"/><polygon points="25.06 42.36 25.06 42.37 25.07 42.37 25.06 42.36" fill="url(#aig-p)"/><polygon points="25.06 42.36 25.06 42.37 25.07 42.37 25.06 42.36" fill="url(#aig-q)"/><path d="m41.59,26.43c-.91.85-2.12,1.97-3.33,3.09-.52.48-1.04.96-1.54,1.42v5.07h3.03l2.62-2.62v-7.69c-.21.2-.47.44-.79.73h0Z" fill="url(#aig-r)"/><path d="m33.4,42.37l.07-.07s-.08.05-.12.07h.05Z" fill="url(#aig-s)"/><path d="m33.4,42.37l.07-.07s-.08.05-.12.07h.05Z" fill="url(#aig-t)"/><path d="m33.4,42.37l.07-.07s-.08.05-.12.07h.05Z" fill="url(#aig-u)"/><path d="m36.73,36.79c0,1.09-.28,2.12-.78,3.02l1.66-1.66,1.43-1.43h-2.31v.07h0Z" fill="url(#aig-v)"/><path d="m36.73,36.79c0,1.09-.28,2.12-.78,3.02l1.66-1.66,1.43-1.43h-2.31v.07h0Z" fill="url(#aig-w)"/><polygon points="36.73 36.72 39.04 36.72 39.76 36 36.73 36 36.73 36.72" fill="#fff"/><polygon points="36.73 36.72 39.04 36.72 39.76 36 36.73 36 36.73 36.72" fill="url(#aig-x)"/><path d="m43.09,24.97c-.12.14-.34.36-.72.72v7.69l.72-.72v-7.69Z" fill="#fff"/><path d="m46.81,20.72l-3.61-3.61v7.56c.02.08.01.15-.11.3-.12.14-.34.36-.72.72-.21.2-.47.44-.79.73-.91.85-2.12,1.97-3.33,3.09-.52.48-1.04.96-1.54,1.42-.25.23-.49.45-.72.66-1.48,1.36-2.6,2.39-2.6,2.39l-2.01,2.02-.72.72-5.63,5.64h0s-.01,0-.01,0l-.72.72-.13.13c-1.26,1.26-2.71,1.96-4.2,2-.59.02-1.16-.07-1.72-.25-.1-.03-.2-.06-.3-.1l2.18,2.54c.45.45.96.81,1.51,1.08.8.4,1.68.61,2.59.61h0c1.55,0,3.02-.61,4.11-1.71l4.29-4.3.72-.72h-.05s.08-.05.12-.07l2.48-2.49,1.66-1.66,1.43-1.43.72-.72,2.62-2.62.72-.72,3.72-3.72c2.27-2.27,2.27-5.96,0-8.23h0Z" fill="url(#aig-y)"/><path d="m28.35,1.69c-1.13-1.13-2.62-1.69-4.11-1.69s-2.99.57-4.12,1.71l-3.72,3.73-4.25,4.26-1.24,1.25-4.74,4.74-.72.72-3.74,3.74c-2.27,2.27-2.27,5.96,0,8.23l3.61,3.61v-7.56c-.03-.09-.01-.16.14-.33.12-.14.34-.36.72-.71.21-.19.45-.43.76-.71.91-.85,2.12-1.97,3.33-3.09.53-.49,1.06-.97,1.56-1.44.25-.23.49-.45.72-.66,1.47-1.35,2.57-2.37,2.57-2.37l2.81-2.82.72-.72,5.39-5.41.28-.28c.16-.16.32-.3.48-.44,1.78-1.54,3.89-2.04,5.79-1.48l-2.23-2.27h0Zm-15.81,9.88s0-.04,0-.06v.06h0Z" fill="url(#aig-z)"/></g></g>
<line x1="245" y1="40" x2="245" y2="92" stroke="#E2E6EA"/>
<line x1="755" y1="40" x2="755" y2="92" stroke="#E2E6EA"/>
<text x="500" y="52" text-anchor="middle" font-family="system-ui, -apple-system, 'Segoe UI', Roboto, sans-serif" font-size="11" font-weight="600" letter-spacing="2.5" fill="#0056A7">HANDS-ON COURSE</text>
<text x="500" y="78" text-anchor="middle" font-family="system-ui, -apple-system, 'Segoe UI', Roboto, sans-serif" font-size="20" font-weight="700" fill="#1F1F1F">Session 2 · Multi-Agent Systems</text>
<text x="500" y="99" text-anchor="middle" font-family="system-ui, -apple-system, 'Segoe UI', Roboto, sans-serif" font-size="12.5" fill="#5A5A5A">Tuesday 14 July 2026 · 10:00-12:00</text>
</svg>
